<svg width="561" height="460" viewBox="0 0 561 460" fill="none" xmlns="http://www.w3.org/2000/svg">
<g clip-path="url(#clip0_0_1)">
<path d="M283.955 419.73L301.556 414.544L296.42 432.195L301.556 449.796L283.955 444.661L266.304 449.796L271.489 432.195L266.304 414.544L283.955 419.73Z" fill="black" stroke="white" stroke-miterlimit="10"/>
</g>
<g clip-path="url(#clip1_0_1)">
<path d="M97.9035 332.704L129.38 349.854L97.9036 367.142L80.6847 398.549L63.4659 367.142L31.99 349.854L63.4659 332.704L80.6847 301.16L97.9035 332.704Z" fill="black" stroke="white" stroke-miterlimit="10"/>
</g>
<path d="M318.542 188.382C386.981 226.133 445.714 266.13 485.347 300.272C505.166 317.346 520.189 332.938 529.262 346.037C533.8 352.588 536.832 358.492 538.244 363.629C539.656 368.763 539.436 373.085 537.536 376.529C535.636 379.972 532.098 382.463 527.003 384.008C521.905 385.554 515.293 386.139 507.332 385.795C491.412 385.109 470.21 380.719 445.196 373.063C395.176 357.753 330.013 329.411 261.574 291.661C193.135 253.91 134.401 213.912 94.7683 179.77C74.9493 162.696 59.9272 147.105 50.8536 134.005C46.3162 127.455 43.2827 121.55 41.8708 116.413C40.4597 111.28 40.6793 106.958 42.5786 103.514C44.4782 100.071 48.0168 97.5789 53.1121 96.0338C58.2099 94.4879 64.8226 93.904 72.7838 94.2474C88.7042 94.9343 109.905 99.3233 134.919 106.979C184.94 122.289 250.102 150.631 318.542 188.382Z" stroke="black"/>
<path d="M298.311 225.056C366.751 262.806 425.484 302.804 465.116 336.946C484.936 354.02 499.958 369.611 509.032 382.711C513.569 389.262 516.602 395.166 518.014 400.303C519.425 405.437 519.205 409.759 517.306 413.203C515.406 416.646 511.868 419.137 506.773 420.682C501.675 422.228 495.063 422.813 487.102 422.469C471.181 421.782 449.98 417.393 424.966 409.737C374.945 394.427 309.783 366.085 241.344 328.334C172.904 290.584 114.17 250.586 74.5379 216.444C54.7188 199.37 39.6967 183.779 30.6231 170.679C26.0858 164.129 23.0522 158.224 21.6404 153.087C20.2292 147.953 20.4488 143.632 22.3482 140.188C24.2478 136.744 27.7863 134.253 32.8816 132.708C37.9794 131.162 44.5921 130.578 52.5534 130.921C68.4737 131.608 89.675 135.997 114.689 143.653C164.709 158.963 229.872 187.305 298.311 225.056Z" stroke="black"/>
<path d="M278.083 261.73C346.522 299.481 405.255 339.478 444.888 373.62C464.707 390.694 479.73 406.286 488.803 419.385C493.341 425.936 496.373 431.84 497.785 436.977C499.197 442.111 498.977 446.433 497.077 449.877C495.177 453.321 491.639 455.812 486.544 457.357C481.446 458.902 474.834 459.487 466.873 459.143C450.953 458.457 429.751 454.067 404.737 446.411C354.717 431.101 289.554 402.759 221.115 365.009C152.676 327.258 93.942 287.26 54.3094 253.118C34.4903 236.045 19.4682 220.453 10.3946 207.354C5.85724 200.803 2.82368 194.898 1.41184 189.762C0.000729804 184.628 0.220289 180.306 2.11967 176.862C4.01925 173.419 7.55777 170.927 12.6531 169.382C17.7509 167.836 24.3636 167.252 32.3249 167.596C48.2452 168.282 69.4465 172.671 94.4601 180.327C144.481 195.637 209.643 223.98 278.083 261.73Z" stroke="black"/>
<circle cx="104.456" cy="91.6953" r="15.5" fill="#B9FF66"/>
<circle cx="393.956" cy="422.195" r="10" fill="#B9FF66"/>
<circle cx="54.4562" cy="51.6953" r="23.5" fill="black"/>
<path d="M278.928 370.785C272.624 372.939 265.42 368.67 262.914 361.267L223.915 247.005L246.704 239.21L285.741 353.628C288.247 360.953 285.193 368.631 278.928 370.785Z" fill="black"/>
<path d="M275.522 372.195C273.681 372.195 271.802 371.764 270.001 370.863C266.359 369.062 263.462 365.693 262.052 361.541L223.054 247.279C222.897 246.848 223.132 246.339 223.602 246.182L246.39 238.387C246.625 238.309 246.86 238.309 247.056 238.426C247.252 238.544 247.408 238.701 247.486 238.936L286.524 353.354C289.148 361.11 285.859 369.297 279.163 371.608C278.028 371.999 276.775 372.195 275.522 372.195ZM225.011 247.553L263.736 360.992C264.989 364.714 267.573 367.769 270.784 369.336C273.368 370.589 276.148 370.824 278.654 369.963C284.449 367.965 287.268 360.757 284.919 353.902L246.155 240.307L225.011 247.553Z" fill="black"/>
<path d="M242.67 140.577L168.941 193.184L140.24 222.993L128.963 242.931L128.924 243.088C126.692 246.535 127.984 254.486 132.174 262.595C136.285 270.586 142.08 276.148 146.152 276.461L146.035 276.54L167.688 278.89L208.213 272.427L294.237 241.638L401.17 259.97L401.914 260.009C375.054 254.996 338.796 219.076 312.444 168.271C286.132 117.505 277.753 67.3274 289.304 42.5713H289.265L243.257 139.324L242.67 140.577Z" fill="#B9FF66"/>
<path d="M419.685 257.798C446.113 244.068 441.003 181.824 408.271 118.772C375.54 55.7202 327.582 15.7367 301.155 29.4666C274.728 43.1965 279.838 105.441 312.569 168.493C345.3 231.545 393.258 271.528 419.685 257.798Z" fill="white"/>
<path d="M408.062 261.381C396.551 261.381 382.69 254.957 367.772 242.461C347.45 225.461 327.52 199.255 311.662 168.624C287.66 122.245 277.754 74.6917 286.446 47.4678C289.344 38.3802 294.199 32.0345 300.816 28.6266C313.972 21.8892 332.493 27.6081 353.01 44.765C373.332 61.7652 393.262 87.9706 409.119 118.602C433.161 164.981 443.067 212.534 434.335 239.758C431.438 248.846 426.583 255.192 419.965 258.599C416.402 260.48 412.409 261.381 408.062 261.381ZM312.798 27.6081C308.765 27.6081 305.006 28.4307 301.638 30.1934C295.413 33.3663 290.871 39.3986 288.13 48.0554C279.555 74.8875 289.422 121.932 313.228 167.919C345.649 230.475 393.183 270.507 419.222 257.15C425.447 253.977 429.989 247.945 432.73 239.288C441.305 212.456 431.438 165.412 407.632 119.425C379.401 64.9773 339.776 27.6081 312.798 27.6081Z" fill="black"/>
<path d="M408.062 261.381C396.55 261.381 382.689 254.957 367.771 242.461C347.45 225.461 327.52 199.255 311.662 168.624C287.66 122.245 277.753 74.6917 286.446 47.4678C289.343 38.3802 294.199 32.0345 300.816 28.6266C309.626 24.0827 321.137 25.2187 334.098 31.8778C346.51 38.2626 359.94 49.5831 373.018 64.5855C373.331 64.9381 373.292 65.4865 372.94 65.7998C372.587 66.1132 372.039 66.074 371.726 65.7215C345.179 35.2465 318.318 21.615 301.638 30.1934C295.412 33.3663 290.87 39.3986 288.13 48.0554C279.555 74.8875 289.422 121.932 313.228 167.919C341.42 222.327 381.084 259.735 408.023 259.735C412.056 259.735 415.815 258.913 419.182 257.15C425.408 253.977 429.95 247.945 432.691 239.288C441.266 212.456 431.399 165.412 407.592 119.425C400.505 105.715 392.517 92.8278 383.942 81.1157C383.668 80.724 383.747 80.1756 384.138 79.9014C384.53 79.6272 385.078 79.7055 385.352 80.0973C394.005 91.8877 401.993 104.853 409.158 118.642C433.161 164.981 443.067 212.534 434.335 239.758C431.438 248.846 426.582 255.192 419.965 258.599C416.402 260.48 412.408 261.381 408.062 261.381Z" fill="black"/>
<path d="M359.723 177.534C365.845 174.353 364.667 159.946 357.092 145.354C349.518 130.762 338.414 121.512 332.292 124.692C326.169 127.873 327.347 142.281 334.922 156.872C342.497 171.464 353.6 180.715 359.723 177.534Z" fill="#B9FF66"/>
<path d="M357.043 179.043C350.309 179.043 340.911 170.347 334.138 157.225C328.499 146.336 326.189 135.133 328.264 128.669C329.008 126.398 330.222 124.792 331.906 123.93C338.562 120.522 349.956 129.805 357.866 145.043C363.504 155.932 365.814 167.135 363.739 173.599C362.995 175.87 361.781 177.476 360.097 178.338C359.158 178.808 358.14 179.043 357.043 179.043ZM334.96 124.909C334.138 124.909 333.354 125.066 332.689 125.418C331.397 126.084 330.457 127.338 329.87 129.179C327.951 135.211 330.183 145.944 335.625 156.442C342.83 170.347 353.676 179.709 359.275 176.811C360.567 176.145 361.507 174.891 362.094 173.05C364.013 166.979 361.742 156.285 356.339 145.787C349.995 133.605 340.911 124.909 334.96 124.909Z" fill="#B9FF66"/>
<path d="M402.111 246.77C392.009 246.77 379.871 241.129 366.793 230.2C349.016 215.315 331.553 192.361 317.692 165.568C296.666 124.987 288.013 83.3483 295.609 59.4932C298.154 51.5023 302.422 45.94 308.256 42.9238C321.647 36.0689 341.342 43.9815 362.329 64.6246C362.682 64.9771 362.682 65.4863 362.329 65.8389C361.977 66.1914 361.468 66.1914 361.115 65.8389C340.676 45.7442 321.686 37.91 309.039 44.4515C303.635 47.2327 299.681 52.4424 297.253 60.0024C289.775 83.4266 298.389 124.556 319.219 164.785C343.848 212.378 378.5 245.046 402.072 245.046C405.596 245.046 408.846 244.302 411.821 242.813C417.225 240.032 421.179 234.823 423.607 227.263C431.086 203.838 422.472 162.709 401.641 122.48C395.337 110.337 388.289 98.9384 380.693 88.6364C380.419 88.2447 380.497 87.6963 380.889 87.4221C381.28 87.1479 381.828 87.2262 382.103 87.6179C389.777 98.0374 396.864 109.475 403.207 121.697C424.234 162.278 432.887 203.917 425.291 227.772C422.746 235.763 418.478 241.325 412.644 244.341C409.433 245.947 405.909 246.77 402.111 246.77Z" fill="black"/>
<path d="M167.727 279.713C167.688 279.713 167.649 279.713 167.649 279.713L145.996 277.362C145.879 277.362 145.761 277.323 145.644 277.245C141.18 276.54 135.542 270.899 131.431 262.987C127.045 254.643 125.753 246.496 128.142 242.657L128.181 242.539L139.457 222.562C139.497 222.484 139.536 222.445 139.575 222.406L168.276 192.596C168.315 192.557 168.354 192.518 168.393 192.479L241.927 139.99L288.443 42.1798C288.561 41.984 288.717 41.8273 288.952 41.749C289.187 41.6706 289.422 41.6706 289.618 41.7881C290.048 41.984 290.244 42.4932 290.048 42.9241C278.263 68.1894 287.582 118.407 313.189 167.84C338.836 217.352 374.585 254.017 402.111 259.07C402.541 259.148 402.855 259.54 402.816 260.01C402.776 260.441 402.385 260.754 401.954 260.793L401.21 260.754C401.171 260.754 401.132 260.754 401.093 260.754L294.356 242.461L208.527 273.171C208.488 273.171 208.41 273.21 208.371 273.21L167.845 279.673C167.806 279.713 167.767 279.713 167.727 279.713ZM146.623 275.717L167.727 277.989L208.057 271.526L294.042 240.777C294.199 240.738 294.316 240.698 294.473 240.738L390.56 257.189C364.6 245.791 334.255 212.143 311.74 168.663C289.383 125.497 279.398 81.6642 284.88 53.9703L243.454 140.93C243.375 141.047 243.297 141.165 243.18 141.243L169.529 193.85L140.945 223.502L129.669 243.479C129.669 243.519 129.629 243.558 129.629 243.558C127.593 246.731 128.964 254.565 132.918 262.203C136.795 269.685 142.394 275.325 146.231 275.6C146.388 275.6 146.505 275.639 146.623 275.717Z" fill="black"/>
<path d="M242.787 140.264L289.264 42.5323H289.303C277.752 67.2883 286.171 117.466 312.444 168.232C338.795 219.076 375.053 254.996 401.992 259.931L401.248 259.892L294.471 241.599L292.005 241.168C279.592 238.975 263.03 222.836 251.166 199.804C238.988 176.184 236.835 152.642 242.238 141.439L242.787 140.264Z" fill="white"/>
<path d="M401.992 260.793C401.992 260.793 401.953 260.793 401.992 260.793L401.209 260.754C401.17 260.754 401.131 260.754 401.091 260.754L294.315 242.461L291.848 242.03C278.731 239.719 262.09 222.915 250.383 200.235C237.109 174.46 236.444 151.506 241.456 141.086L242.043 139.911L288.52 42.2189C288.638 42.023 288.794 41.8664 289.029 41.788C289.264 41.7097 289.499 41.7097 289.695 41.8272C290.126 42.023 290.321 42.5323 290.126 42.9632C278.34 68.2284 287.659 118.446 313.266 167.879C338.913 217.392 374.662 254.056 402.188 259.109C402.619 259.187 402.932 259.579 402.893 260.049C402.775 260.44 402.423 260.793 401.992 260.793ZM284.8 53.9702L243.57 140.656L242.983 141.831C238.01 152.172 239.459 175.283 251.91 199.412C263.382 221.661 279.554 238.113 292.162 240.307L294.628 240.737L390.52 257.189C364.56 245.79 334.214 212.143 311.7 168.663C289.342 125.496 279.358 81.6641 284.8 53.9702Z" fill="black"/>
<path d="M166.552 279.595C166.513 279.595 166.474 279.595 166.474 279.595L145.957 277.401C145.839 277.401 145.722 277.362 145.604 277.284C141.141 276.579 135.502 270.938 131.391 263.026C127.045 254.643 125.753 246.496 128.141 242.657L128.18 242.539L139.457 222.562C139.692 222.131 140.201 222.014 140.632 222.249C141.062 222.484 141.18 222.993 140.945 223.424L129.668 243.479C129.668 243.519 129.629 243.558 129.629 243.558C127.593 246.731 128.963 254.565 132.918 262.203C136.794 269.685 142.394 275.325 146.231 275.6C146.348 275.6 146.505 275.639 146.583 275.717L166.631 277.872C167.1 277.911 167.453 278.342 167.375 278.812C167.335 279.242 166.983 279.595 166.552 279.595Z" fill="black"/>
<path d="M167.922 278.733C161.266 278.263 151.947 268.823 145.173 255.779C138.008 241.952 136.324 227.654 140.71 222.562L129.002 242.931L128.924 243.088C126.692 246.535 127.984 254.487 132.174 262.595C136.285 270.586 142.08 276.148 146.152 276.461L146.035 276.54L167.922 278.733Z" fill="white"/>
<path d="M167.923 279.595C167.884 279.595 167.884 279.595 167.844 279.595C167.688 279.595 167.492 279.556 167.335 279.556L145.957 277.402C145.839 277.402 145.722 277.362 145.604 277.284C141.141 276.579 135.502 270.938 131.391 263.026C127.045 254.643 125.753 246.496 128.141 242.657L128.18 242.539L138.478 224.599C138.87 223.581 139.379 222.68 140.005 221.935C140.279 221.583 140.788 221.544 141.141 221.779C141.493 222.053 141.61 222.523 141.375 222.915L139.927 225.382C137.617 231.611 139.888 243.832 145.839 255.27C152.3 267.765 161.11 276.892 167.414 277.715L167.884 277.754C168.353 277.793 168.706 278.224 168.667 278.694C168.706 279.243 168.353 279.595 167.923 279.595ZM146.583 275.717L161.54 277.245C155.785 273.563 149.441 265.964 144.39 256.171C139.496 246.731 137.068 236.938 137.46 229.887L129.668 243.479C129.668 243.519 129.629 243.558 129.629 243.558C127.593 246.731 128.963 254.565 132.918 262.203C136.794 269.685 142.394 275.325 146.231 275.6C146.348 275.6 146.505 275.639 146.583 275.717Z" fill="black"/>
<path d="M206.764 272.583L208.487 272.231C199.168 274.189 184.446 260.088 174.069 240.071C163.458 219.624 161.462 199.216 168.979 193.184L168 194.163L140.788 222.444C136.324 227.458 137.968 241.834 145.173 255.74C152.103 269.136 161.931 278.694 168.627 278.655L206.764 272.583Z" fill="black"/>
<path d="M168.589 279.556C161.462 279.556 151.556 269.959 144.391 256.171C137.108 242.069 135.267 227.341 140.123 221.896L166.827 194.163C167.296 193.536 167.845 192.988 168.432 192.518C168.784 192.244 169.293 192.283 169.607 192.596C169.92 192.949 169.92 193.458 169.607 193.771L168.08 195.377C162.637 202.663 165.339 221.309 174.853 239.68C185.112 259.5 199.443 273.093 208.214 271.447L208.331 271.408C208.801 271.33 209.232 271.604 209.349 272.074C209.427 272.544 209.153 272.975 208.684 273.093C208.644 273.093 208.605 273.093 208.566 273.132L206.961 273.445H206.922L168.784 279.517C168.706 279.517 168.628 279.556 168.589 279.556ZM164.556 199.02L141.415 223.071C137.108 227.929 139.066 242.108 145.957 255.387C152.692 268.392 162.206 277.793 168.589 277.832L202.262 272.466C193.178 269.254 181.98 257.15 173.326 240.502C165.104 224.638 161.932 208.5 164.556 199.02Z" fill="black"/>
<path d="M332.297 124.674C326.15 127.808 327.05 142.34 334.882 156.833C347.999 181.08 358.453 178.221 359.667 177.79C359.706 177.79 359.706 177.829 359.667 177.829L337.153 195.965C330.535 186.682 324.231 176.34 318.436 165.177C312.915 154.483 308.256 143.828 304.575 133.487L332.297 124.674Z" fill="black"/>
<path d="M337.152 196.827C337.113 196.827 337.074 196.827 337.035 196.827C336.8 196.788 336.604 196.67 336.448 196.474C329.674 186.956 323.37 176.536 317.692 165.608C312.25 155.11 307.551 144.416 303.792 133.84C303.714 133.605 303.714 133.37 303.831 133.174C303.949 132.978 304.105 132.821 304.34 132.743L332.062 123.93C332.493 123.812 332.963 124.008 333.119 124.439C333.276 124.87 333.119 125.34 332.728 125.536C331.397 126.202 330.418 127.533 329.83 129.492C327.912 135.642 330.261 146.531 335.704 156.52C348.507 180.179 358.374 177.476 359.432 177.085C359.823 176.928 360.293 177.124 360.489 177.476C360.685 177.829 360.606 178.338 360.293 178.612L337.701 196.631C337.544 196.748 337.348 196.827 337.152 196.827ZM305.711 134.036C309.43 144.259 313.972 154.6 319.219 164.785C324.701 175.361 330.809 185.428 337.348 194.712L356.887 178.965C352.423 178.769 344.004 175.439 334.137 157.225C328.421 146.688 326.071 135.563 328.147 128.865C328.421 128.003 328.734 127.259 329.126 126.554L305.711 134.036Z" fill="black"/>
<path d="M448.143 68.7927C466.043 59.389 472.966 37.3112 463.606 19.4805C454.247 1.64985 432.148 -5.18156 414.248 4.22213C396.348 13.6258 389.425 35.7036 398.784 53.5343C408.144 71.365 430.243 78.1964 448.143 68.7927Z" fill="black"/>
<path d="M414.523 28.4305C416.246 26.0802 418.791 24.6309 421.689 24.3175C423.882 24.0825 425.918 24.5526 427.836 25.7277C428.815 26.3152 429.677 27.0595 430.499 27.9604C431.086 26.9028 431.791 25.9627 432.613 25.1793C434.219 23.6125 436.137 22.7115 438.291 22.4765C441.188 22.1631 444.007 23.0249 446.2 24.9443C448.354 26.8245 449.724 29.5664 450.076 32.6609C450.429 35.8338 449.567 38.8891 447.375 42.2578C445.417 45.274 442.441 48.4077 438.995 52.0898C437.821 53.3432 436.49 54.7534 435.119 56.2419C434.767 56.6336 434.258 56.9078 433.71 56.947C433.161 57.0253 432.652 56.8686 432.182 56.5552C430.499 55.3801 428.893 54.2833 427.484 53.3432C423.333 50.5229 419.731 48.0943 417.147 45.5874C414.249 42.8062 412.761 39.9859 412.409 36.8131C412.096 33.7186 412.84 30.7416 414.523 28.4305Z" fill="white"/>
<path d="M549.691 70.7876C562.796 57.678 562.796 36.4232 549.691 23.3136C536.587 10.204 515.341 10.204 502.236 23.3136C489.132 36.4232 489.132 57.678 502.236 70.7876C515.341 83.8972 536.587 83.8972 549.691 70.7876Z" fill="#B9FF66"/>
<path d="M525.958 81.4683C507.007 81.4683 491.54 66.0349 491.54 47.037C491.54 28.0783 506.967 12.6057 525.958 12.6057C544.948 12.6057 560.375 28.0391 560.375 47.037C560.375 65.9958 544.948 81.4683 525.958 81.4683ZM525.958 14.3292C507.946 14.3292 493.263 28.9792 493.263 47.037C493.263 65.0557 507.907 79.7448 525.958 79.7448C543.969 79.7448 558.652 65.0948 558.652 47.037C558.652 29.0184 544.008 14.3292 525.958 14.3292Z" fill="#B9FF66"/>
<path d="M535.041 50.3666C533.162 50.3666 531.517 51.2675 530.421 52.6777L519.105 48.2514C519.105 48.0947 519.144 47.9772 519.144 47.8205C519.144 47.5463 519.105 47.2721 519.066 46.9979L530.656 41.6315C531.713 42.8458 533.279 43.6292 535.041 43.6684C538.252 43.6684 540.915 41.0439 540.915 37.7927C540.915 34.5415 538.291 31.8779 535.041 31.8779C531.831 31.8779 529.168 34.5023 529.168 37.7535C529.168 38.0277 529.207 38.3019 529.246 38.5761L517.656 43.9426C516.599 42.7283 515.033 41.9448 513.271 41.9057C510.06 41.9057 507.398 44.5301 507.398 47.7813C507.398 51.0325 510.021 53.6961 513.271 53.6961C515.15 53.6961 516.795 52.7952 517.891 51.385L529.207 55.8114C529.207 55.968 529.168 56.0856 529.168 56.2422C529.168 59.4934 531.791 62.1571 535.041 62.1571C538.252 62.1571 540.915 59.5326 540.915 56.2814C540.875 53.0302 538.252 50.4058 535.041 50.3666Z" fill="black"/>
<path d="M535.486 177.188C550.852 166.518 554.713 145.478 544.109 130.194C533.505 114.91 512.451 111.17 497.084 121.84C481.718 132.51 477.857 153.55 488.461 168.834C499.066 184.118 520.119 187.858 535.486 177.188Z" fill="black"/>
<path d="M507.83 165.568L502.897 138.814C502.662 137.443 503.915 136.308 505.246 136.66L534.417 144.925C535.905 145.356 536.257 147.275 535.043 148.215L510.767 166.704C509.71 167.566 508.105 166.978 507.83 165.568Z" fill="white"/>
<path d="M515.954 286.777C534.931 277.535 542.871 254.748 533.69 235.881C524.509 217.014 501.683 209.211 482.706 218.453C463.73 227.694 455.79 250.481 464.971 269.348C474.152 288.216 496.978 296.018 515.954 286.777Z" fill="#B9FF66"/>
<path d="M499.137 291.542C495.065 291.542 490.914 290.915 486.881 289.544C477.014 286.254 469.026 279.36 464.406 270.037C459.786 260.754 459.081 250.217 462.409 240.346C469.301 220.016 491.462 208.93 511.862 215.707C521.729 218.997 529.717 225.891 534.337 235.214C538.958 244.498 539.662 255.035 536.334 264.906C530.774 281.201 515.465 291.542 499.137 291.542ZM499.528 215.472C483.905 215.472 469.261 225.343 463.975 240.933C460.804 250.373 461.469 260.44 465.894 269.293C470.319 278.185 477.954 284.805 487.39 287.938C506.89 294.402 528.072 283.825 534.651 264.397C537.822 254.956 537.157 244.889 532.732 236.037C528.307 227.145 520.672 220.525 511.236 217.391C507.359 216.06 503.405 215.472 499.528 215.472Z" fill="black"/>
<path d="M518.794 246.456C518.403 255.975 502.31 278.224 498.473 283.434C498.081 283.982 497.259 283.943 496.906 283.355C494.479 279.438 486.452 266.277 482.262 255.622C480.579 251.392 479.521 247.553 479.639 244.85C480.07 234.039 489.193 225.617 500 226.048C510.806 226.558 519.225 235.645 518.794 246.456Z" fill="black"/>
<path d="M505.549 252.022C509.051 248.519 509.051 242.839 505.549 239.336C502.048 235.833 496.37 235.833 492.869 239.336C489.367 242.839 489.367 248.519 492.869 252.022C496.37 255.525 502.048 255.525 505.549 252.022Z" fill="#B9FF66"/>
<defs>
<clipPath id="clip0_0_1">
<rect width="36" height="36" fill="white" transform="translate(265.956 414.195)"/>
</clipPath>
<clipPath id="clip1_0_1">
<rect width="70.3259" height="70.3259" fill="white" transform="translate(80.6847 300.195) rotate(45)"/>
</clipPath>
</defs>
</svg>
